{"asset":{"version":"2.0","generator":"THREE.GLTFExporter r175"},"scenes":[{"name":"AuxScene","nodes":[6]}],"scene":0,"nodes":[{"mesh":0},{"mesh":1},{"matrix":[0.4714045207910316,0,-0.4714045207910317,0,0,-0.6666666666666666,0,0,0.4714045207910317,0,0.4714045207910316,0,0,0,0,1],"children":[0,1]},{"children":[2]},{"matrix":[1,0,0,0,0,1,0,0,0,0,1,0,-36.44428265351713,51.261914213498436,34.558664682744606,1],"children":[3]},{"children":[4]},{"children":[5]}],"bufferViews":[{"buffer":0,"byteOffset":0,"byteLength":4176,"target":34962,"byteStride":12},{"buffer":0,"byteOffset":4176,"byteLength":2784,"target":34962,"byteStride":8},{"buffer":0,"byteOffset":6960,"byteLength":4176,"target":34962,"byteStride":12},{"buffer":0,"byteOffset":11136,"byteLength":11376,"target":34962,"byteStride":12},{"buffer":0,"byteOffset":22512,"byteLength":7584,"target":34962,"byteStride":8},{"buffer":0,"byteOffset":30096,"byteLength":11376,"target":34962,"byteStride":12}],"buffers":[{"byteLength":41472,"uri":"data:application/octet-stream;base64,"}],"accessors":[{"bufferView":0,"componentType":5126,"count":348,"max":[88.31399536132812,154.2100067138672,4.599999904632568],"min":[-0.3599308133125305,-0.4242640733718872,-0.6000000238418579],"type":"VEC3"},{"bufferView":1,"componentType":5126,"count":348,"max":[154.2100067138672,153.91000366210938],"min":[-0.4242640733718872,-3.5999999046325684],"type":"VEC2"},{"bufferView":2,"componentType":5126,"count":348,"max":[0.900029718875885,0.999995768070221,1],"min":[-0.8986533880233765,-0.44303491711616516,-1],"type":"VEC3"},{"bufferView":3,"componentType":5126,"count":948,"max":[150.9799346923828,154.2100067138672,4.599999904632568],"min":[35.280147552490234,35.995635986328125,-0.6000000238418579],"type":"VEC3"},{"bufferView":4,"componentType":5126,"count":948,"max":[154.2100067138672,153.91000366210938],"min":[35.280147552490234,-3.5999999046325684],"type":"VEC2"},{"bufferView":5,"componentType":5126,"count":948,"max":[0.9012182354927063,0.9999991655349731,1],"min":[-0.9013767838478088,-1,-1],"type":"VEC3"}],"materials":[{"pbrMetallicRoughness":{"baseColorFactor":[0.6375968739867731,0.6653872982754769,0.7083757798856457,1],"metallicFactor":1,"roughnessFactor":0.2},"doubleSided":true,"extensions":{"KHR_materials_clearcoat":{"clearcoatFactor":0.1,"clearcoatRoughnessFactor":0}}}],"meshes":[{"primitives":[{"mode":4,"attributes":{"POSITION":0,"TEXCOORD_0":1,"NORMAL":2},"material":0}]},{"primitives":[{"mode":4,"attributes":{"POSITION":3,"TEXCOORD_0":4,"NORMAL":5},"material":0}]}],"extensionsUsed":["KHR_materials_clearcoat"]}